<svg width="27" height="27" viewBox="0 0 27 27" fill="none" xmlns="http://www.w3.org/2000/svg">
<path d="M22.1884 23.7814L17.8099 19.4152C17.3119 19.6357 16.6943 19.83 15.957 19.998C15.219 20.166 14.4 20.25 13.5 20.25C11.0438 20.25 8.8103 19.5787 6.79955 18.2362C4.78955 16.8945 3.30192 15.1282 2.33667 12.9375C2.77392 11.9437 3.3503 11.013 4.0658 10.1452C4.78055 9.2775 5.54405 8.54962 6.3563 7.96162L3.21867 4.81163L4.01517 4.01513L22.9849 22.9849L22.1884 23.7814ZM13.5 17.0482C13.764 17.0482 14.0535 17.0171 14.3685 16.9549C14.6835 16.8934 14.9299 16.8127 15.1077 16.713L9.72455 11.3287C9.6248 11.535 9.54417 11.7922 9.48267 12.1005C9.42042 12.408 9.3893 12.6866 9.3893 12.9364C9.3893 14.0831 9.78792 15.0547 10.5852 15.8512C11.3824 16.6477 12.354 17.0467 13.5 17.0482ZM20.934 17.6839L17.4488 14.2267C17.4938 14.067 17.532 13.8772 17.5635 13.6575C17.595 13.4377 17.6108 13.1977 17.6108 12.9375C17.6108 11.7907 17.2122 10.8191 16.4149 10.0226C15.6177 9.22612 14.646 8.8275 13.5 8.82675C13.2405 8.82675 13.008 8.84625 12.8025 8.88525C12.597 8.92425 12.4069 8.98275 12.2322 9.06075L9.47142 6.32137C10.1247 6.07537 10.7895 5.89762 11.466 5.78812C12.1425 5.67862 12.8205 5.62425 13.5 5.625C15.942 5.625 18.1755 6.29625 20.2005 7.63875C22.2255 8.9805 23.7132 10.7467 24.6634 12.9375C24.2614 13.842 23.7522 14.6917 23.1357 15.4867C22.5192 16.2817 21.7853 17.0141 20.934 17.6839ZM16.5308 13.3312L13.1344 9.95625C13.6017 9.8625 14.0554 9.894 14.4957 10.0507C14.9367 10.2067 15.3165 10.4464 15.6353 10.7696C15.9683 11.0921 16.2158 11.4776 16.3778 11.9261C16.5405 12.3739 16.5915 12.8422 16.5308 13.3312Z" fill="#1E1E1E"/>
</svg>
