<svg width="28" height="28" viewBox="0 0 28 28" fill="none" xmlns="http://www.w3.org/2000/svg">
<path fill-rule="evenodd" clip-rule="evenodd" d="M14 9.625C12.8397 9.625 11.7269 10.0859 10.9064 10.9064C10.0859 11.7269 9.625 12.8397 9.625 14C9.625 15.1603 10.0859 16.2731 10.9064 17.0936C11.7269 17.9141 12.8397 18.375 14 18.375C15.1603 18.375 16.2731 17.9141 17.0936 17.0936C17.9141 16.2731 18.375 15.1603 18.375 14C18.375 12.8397 17.9141 11.7269 17.0936 10.9064C16.2731 10.0859 15.1603 9.625 14 9.625ZM11.375 14C11.375 13.3038 11.6516 12.6361 12.1438 12.1438C12.6361 11.6516 13.3038 11.375 14 11.375C14.6962 11.375 15.3639 11.6516 15.8562 12.1438C16.3484 12.6361 16.625 13.3038 16.625 14C16.625 14.6962 16.3484 15.3639 15.8562 15.8562C15.3639 16.3484 14.6962 16.625 14 16.625C13.3038 16.625 12.6361 16.3484 12.1438 15.8562C11.6516 15.3639 11.375 14.6962 11.375 14Z" fill="#F3F6FF" fill-opacity="0.6"/>
<path fill-rule="evenodd" clip-rule="evenodd" d="M13.9707 1.45831C13.4516 1.45831 13.0187 1.45831 12.6641 1.48165C12.3015 1.49674 11.944 1.57164 11.6059 1.70331C11.2165 1.86442 10.8627 2.10065 10.5646 2.39851C10.2666 2.69638 10.0301 3.05005 9.86873 3.43931C9.69957 3.84765 9.65407 4.27931 9.6354 4.74831C9.63353 4.91984 9.58813 5.08808 9.50344 5.23725C9.41875 5.38642 9.29756 5.51163 9.15123 5.60115C9.0006 5.6834 8.83152 5.72602 8.6599 5.725C8.48827 5.72398 8.31972 5.67935 8.17007 5.59531C7.75473 5.37598 7.35807 5.19981 6.9194 5.14148C6.50167 5.08653 6.07721 5.1144 5.67025 5.2235C5.26328 5.3326 4.8818 5.52078 4.54757 5.77731C4.26497 6.00467 4.02177 6.27704 3.82773 6.58348C3.6294 6.87981 3.4124 7.25431 3.1534 7.70348L3.12423 7.75481C2.86407 8.20398 2.64823 8.57848 2.4919 8.89815C2.32857 9.23181 2.20023 9.56081 2.15357 9.92481C2.04227 10.7683 2.27056 11.6215 2.78823 12.2966C3.05773 12.6478 3.4089 12.9033 3.80557 13.153C3.95345 13.2404 4.07667 13.364 4.16361 13.5122C4.25055 13.6604 4.29837 13.8282 4.30257 14C4.29837 14.1717 4.25055 14.3396 4.16361 14.4878C4.07667 14.6359 3.95345 14.7595 3.80557 14.847C3.4089 15.0966 3.0589 15.3521 2.78823 15.7033C2.5317 16.0375 2.34352 16.419 2.23442 16.826C2.12532 17.233 2.09745 17.6574 2.1524 18.0751C2.20023 18.4391 2.3274 18.7681 2.49073 19.1018C2.64823 19.4215 2.86407 19.796 3.12423 20.2451L3.1534 20.2965C3.4124 20.7456 3.6294 21.1201 3.82773 21.4165C4.03423 21.7233 4.2559 21.9998 4.54757 22.2215C4.88171 22.4782 5.26316 22.6666 5.67012 22.7759C6.07708 22.8852 6.50159 22.9133 6.9194 22.8585C7.35807 22.8001 7.75473 22.6251 8.17007 22.4046C8.31954 22.3207 8.48789 22.2761 8.65931 22.2751C8.83074 22.2741 8.99961 22.3167 9.15007 22.3988C9.2972 22.4876 9.41916 22.6126 9.50432 22.7619C9.58948 22.9112 9.63501 23.0798 9.63657 23.2516C9.65407 23.7206 9.69957 24.1523 9.8699 24.5606C10.031 24.95 10.2672 25.3038 10.5651 25.6019C10.863 25.9 11.2166 26.1364 11.6059 26.2978C11.9442 26.4378 12.2942 26.4926 12.6641 26.5171C13.0187 26.5416 13.4516 26.5416 13.9707 26.5416H14.0291C14.5482 26.5416 14.9811 26.5416 15.3357 26.5183C15.7067 26.4926 16.0556 26.4378 16.3939 26.2966C16.7833 26.1355 17.1371 25.8993 17.4352 25.6014C17.7332 25.3036 17.9697 24.9499 18.1311 24.5606C18.3002 24.1523 18.3457 23.7206 18.3644 23.2516C18.3661 23.0799 18.4114 22.9114 18.4961 22.7621C18.5808 22.6127 18.7021 22.4873 18.8486 22.3976C18.9993 22.3156 19.1684 22.2732 19.3401 22.2744C19.5117 22.2756 19.6802 22.3204 19.8297 22.4046C20.2451 22.624 20.6417 22.8001 21.0804 22.8573C21.9239 22.9686 22.777 22.7403 23.4522 22.2226C23.7439 21.9986 23.9656 21.7233 24.1721 21.4165C24.3704 21.1201 24.5874 20.7456 24.8464 20.2965L24.8756 20.2451C25.1357 19.796 25.3516 19.4215 25.5079 19.1018C25.6712 18.7681 25.7996 18.438 25.8462 18.0751C25.9575 17.2317 25.7292 16.3785 25.2116 15.7033C24.9421 15.3521 24.5909 15.0966 24.1942 14.847C24.0463 14.7595 23.9231 14.6359 23.8362 14.4878C23.7492 14.3396 23.7014 14.1717 23.6972 14C23.6972 13.6756 23.8746 13.3536 24.1942 13.153C24.5909 12.9033 24.9409 12.6478 25.2116 12.2966C25.4681 11.9624 25.6563 11.5809 25.7654 11.174C25.8745 10.767 25.9023 10.3425 25.8474 9.92481C25.7919 9.56631 25.6776 9.21942 25.5091 8.89815C25.3099 8.51052 25.0986 8.12922 24.8756 7.75481L24.8464 7.70348C24.6333 7.32325 24.4084 6.94974 24.1721 6.58348C23.978 6.27737 23.7348 6.00538 23.4522 5.77848C23.1181 5.52175 22.7366 5.33335 22.3297 5.22405C21.9227 5.11475 21.4982 5.0867 21.0804 5.14148C20.6417 5.19981 20.2451 5.37481 19.8297 5.59531C19.6802 5.67914 19.5119 5.72365 19.3405 5.72467C19.1691 5.7257 19.0002 5.68319 18.8497 5.60115C18.703 5.51192 18.5813 5.38682 18.4962 5.23763C18.4111 5.08844 18.3653 4.92006 18.3632 4.74831C18.3457 4.27931 18.3002 3.84765 18.1299 3.43931C17.9688 3.04994 17.7326 2.69611 17.4347 2.39805C17.1368 2.09998 16.7832 1.86351 16.3939 1.70215C16.0556 1.56215 15.7056 1.50731 15.3357 1.48281C14.9811 1.45831 14.5482 1.45831 14.0291 1.45831H13.9707ZM12.2756 3.31915C12.3654 3.28181 12.5019 3.24798 12.7831 3.22815C13.0712 3.20831 13.4446 3.20831 13.9999 3.20831C14.5552 3.20831 14.9286 3.20831 15.2167 3.22815C15.4979 3.24798 15.6344 3.28181 15.7242 3.31915C16.0824 3.46731 16.3659 3.75081 16.5141 4.10898C16.5607 4.22098 16.5992 4.39715 16.6144 4.81365C16.6494 5.73765 17.1266 6.62781 17.9736 7.11665C18.8206 7.60665 19.8297 7.57398 20.6476 7.14231C21.0162 6.94748 21.1877 6.89265 21.3091 6.87748C21.6924 6.82683 22.0801 6.93048 22.3871 7.16565C22.4641 7.22515 22.5621 7.32665 22.7196 7.55998C22.8817 7.80031 23.0684 8.12348 23.3461 8.60415C23.6237 9.08481 23.8092 9.40915 23.9364 9.66815C24.0612 9.92131 24.0997 10.0566 24.1114 10.1535C24.1621 10.5368 24.0584 10.9246 23.8232 11.2315C23.7486 11.3283 23.6156 11.4496 23.2632 11.6713C22.4792 12.1636 21.9472 13.0223 21.9472 14C21.9472 14.9776 22.4792 15.8363 23.2632 16.3286C23.6156 16.5503 23.7486 16.6716 23.8232 16.7685C24.0589 17.0753 24.1616 17.4626 24.1114 17.8465C24.0997 17.9433 24.0601 18.0798 23.9364 18.3318C23.8092 18.592 23.6237 18.9151 23.3461 19.3958C23.0684 19.8765 22.8806 20.1996 22.7196 20.44C22.5621 20.6733 22.4641 20.7748 22.3871 20.8343C22.0801 21.0695 21.6924 21.1731 21.3091 21.1225C21.1877 21.1073 21.0174 21.0525 20.6476 20.8576C19.8309 20.426 18.8206 20.3933 17.9736 20.8821C17.1266 21.3721 16.6494 22.2623 16.6144 23.1863C16.5992 23.6028 16.5607 23.779 16.5141 23.891C16.4408 24.0681 16.3333 24.229 16.1978 24.3645C16.0622 24.5 15.9013 24.6075 15.7242 24.6808C15.6344 24.7181 15.4979 24.752 15.2167 24.7718C14.9286 24.7916 14.5552 24.7916 13.9999 24.7916C13.4446 24.7916 13.0712 24.7916 12.7831 24.7718C12.5019 24.752 12.3654 24.7181 12.2756 24.6808C12.0985 24.6075 11.9376 24.5 11.802 24.3645C11.6665 24.229 11.559 24.0681 11.4857 23.891C11.4391 23.779 11.4006 23.6028 11.3854 23.1863C11.3504 22.2623 10.8732 21.3721 10.0262 20.8833C9.17923 20.3933 8.17007 20.426 7.35223 20.8576C6.98357 21.0525 6.81207 21.1073 6.69073 21.1225C6.30741 21.1731 5.91966 21.0695 5.61273 20.8343C5.53573 20.7748 5.43773 20.6733 5.28023 20.44C5.0608 20.0984 4.85187 19.7502 4.65373 19.3958C4.37607 18.9151 4.19057 18.5908 4.0634 18.3318C3.93857 18.0786 3.90007 17.9433 3.8884 17.8465C3.83775 17.4632 3.9414 17.0754 4.17657 16.7685C4.25123 16.6716 4.38423 16.5503 4.73657 16.3286C5.52057 15.8363 6.05257 14.9776 6.05257 14C6.05257 13.0223 5.52057 12.1636 4.73657 11.6713C4.38423 11.4496 4.25123 11.3283 4.17657 11.2315C3.9414 10.9246 3.83775 10.5368 3.8884 10.1535C3.90007 10.0566 3.93973 9.92015 4.0634 9.66815C4.19057 9.40798 4.37607 9.08481 4.65373 8.60415C4.9314 8.12348 5.11923 7.80031 5.28023 7.55998C5.43773 7.32665 5.53573 7.22515 5.61273 7.16565C5.91966 6.93048 6.30741 6.82683 6.69073 6.87748C6.81207 6.89265 6.9824 6.94748 7.35223 7.14231C8.1689 7.57398 9.17923 7.60665 10.0262 7.11665C10.8732 6.62781 11.3504 5.73765 11.3854 4.81365C11.4006 4.39715 11.4391 4.22098 11.4857 4.10898C11.6339 3.75081 11.9174 3.46731 12.2756 3.31915Z" fill="#F3F6FF" fill-opacity="0.6"/>
</svg>
